<svg width="180" height="180" viewBox="0 0 180 180" fill="none" xmlns="http://www.w3.org/2000/svg">
  <!-- Olive Branch green rounded square background -->
  <rect width="180" height="180" rx="40" fill="#3a7a2e"/>

  <!-- Speech bubble shape — warm, rounded, with a soft tail -->
  <path d="M40 52C40 43.2 47.2 36 56 36H124C132.8 36 140 43.2 140 52V100C140 108.8 132.8 116 124 116H96L76 138V116H56C47.2 116 40 108.8 40 100V52Z" fill="#faf6ee"/>

  <!-- Small olive leaf inside the bubble — growth, warmth -->
  <path d="M78 68C78 68 84 58 96 58C108 58 108 68 108 78C108 88 98 96 88 96C78 96 78 86 78 78" stroke="#3a7a2e" stroke-width="4.5" stroke-linecap="round" fill="none"/>
  <path d="M88 96L82 68" stroke="#3a7a2e" stroke-width="3.5" stroke-linecap="round"/>
</svg>
